# This file uses centimeters as units for non-parametric coordinates.

mtllib rail piece.mtl
g default
v -0.690008 1.875563 0.500000
v -0.690008 1.952222 0.423341
v -0.766667 1.875563 0.423341
v -0.536659 1.952222 0.423341
v -0.536659 1.875563 0.500000
v -0.460000 1.875563 0.423341
v -0.766667 1.875563 -0.423341
v -0.690008 1.952222 -0.423341
v -0.690008 1.875563 -0.500000
v -0.460000 1.875563 -0.423341
v -0.536659 1.875563 -0.500000
v -0.536659 1.952222 -0.423341
v 0.690008 1.875563 0.500000
v 0.766667 1.875563 0.423341
v 0.690008 1.952222 0.423341
v 0.690008 1.952222 -0.423341
v 0.766667 1.875563 -0.423341
v 0.690008 1.875563 -0.500000
v -0.690008 -1.952222 -0.423341
v -0.766667 -1.875563 -0.423341
v -0.690008 -1.875563 -0.500000
v 0.690008 -1.875563 -0.500000
v 0.766667 -1.875563 -0.423341
v 0.690008 -1.952222 -0.423341
v -0.690008 -1.875563 0.500000
v -0.766667 -1.875563 0.423341
v -0.690008 -1.952222 0.423341
v 0.690008 -1.952222 0.423341
v 0.766667 -1.875563 0.423341
v 0.690008 -1.875563 0.500000
v -0.536659 -1.952222 -0.423341
v -0.536659 -1.875563 -0.500000
v -0.460000 -1.875563 -0.423341
v 0.536659 -1.952222 0.423341
v 0.536659 -1.875563 0.500000
v 0.460000 -1.875563 0.423341
v -0.460000 -1.875563 0.423341
v -0.536659 -1.875563 0.500000
v -0.536659 -1.952222 0.423341
v 0.460000 1.875563 0.423341
v 0.536659 1.875563 0.500000
v 0.536659 1.952222 0.423341
v 0.536659 1.952222 -0.423341
v 0.536659 1.875563 -0.500000
v 0.460000 1.875563 -0.423341
v 0.460000 -1.875563 -0.423341
v 0.536659 -1.875563 -0.500000
v 0.536659 -1.952222 -0.423341
vt 0.279099 0.067555
vt 0.377922 0.068570
vt 0.373427 0.505510
vt 0.274670 0.504512
vt 0.386056 0.505640
vt 0.390550 0.068699
vt 0.262042 0.504384
vt 0.266470 0.067428
vt 0.081522 0.067414
vt 0.180474 0.067665
vt 0.179348 0.505186
vt 0.080462 0.504931
vt 0.191993 0.505218
vt 0.193119 0.067697
vt 0.067818 0.504901
vt 0.068877 0.067385
vt 0.179271 0.547701
vt 0.178131 0.985207
vt 0.079376 0.984976
vt 0.080388 0.547444
vt 0.191916 0.547733
vt 0.190776 0.985239
vt 0.066731 0.984946
vt 0.067743 0.547414
vt 0.373099 0.547970
vt 0.368597 0.984915
vt 0.269970 0.983922
vt 0.274345 0.546970
vt 0.385727 0.548100
vt 0.381225 0.985045
vt 0.261717 0.546843
vt 0.257341 0.983795
vt 0.372177 0.517817
vt 0.384307 0.516783
vt 0.383802 0.536775
vt 0.372114 0.535432
vt 0.275594 0.534664
vt 0.275656 0.517049
vt 0.263968 0.515707
vt 0.263465 0.535699
vt 0.069826 0.516176
vt 0.081532 0.517473
vt 0.081560 0.535111
vt 0.069417 0.536192
vt 0.178176 0.517520
vt 0.178203 0.535158
vt 0.190318 0.516439
vt 0.189909 0.536456
vt 0.280301 0.055240
vt 0.268162 0.056254
vt 0.268633 0.036260
vt 0.280315 0.037616
vt 0.279253 0.025079
vt 0.377226 0.038429
vt 0.377017 0.056037
vt 0.378588 0.026130
vt 0.388702 0.057452
vt 0.389362 0.037476
vt 0.191182 0.056450
vt 0.179471 0.055124
vt 0.179544 0.037492
vt 0.191688 0.036444
vt 0.082630 0.055074
vt 0.082507 0.037429
vt 0.180812 0.025168
vt 0.070484 0.056184
vt 0.070800 0.036162
vt 0.081347 0.024885
vt 0.244179 0.504203
vt 0.248608 0.067247
vt 0.408413 0.068882
vt 0.403919 0.505823
vt 0.049932 0.504859
vt 0.050990 0.067342
vt 0.211005 0.067741
vt 0.209879 0.505262
vn -0.707107 0.000000 0.707106
vn -0.707107 0.000000 0.707106
vn -0.707107 0.000000 0.707106
vn -0.707107 0.000000 0.707106
vn 0.000000 0.707108 0.707106
vn 0.000000 0.707108 0.707106
vn 0.000000 0.707108 0.707106
vn 0.000000 0.707108 0.707106
vn -0.707107 0.707107 0.000000
vn -0.707107 0.707107 0.000000
vn -0.707107 0.707107 0.000000
vn -0.707107 0.707107 0.000000
vn 0.707107 0.707107 0.000000
vn 0.707107 0.707107 0.000000
vn 0.707107 0.707107 0.000000
vn 0.707107 0.707107 0.000000
vn 0.707107 0.000000 0.707106
vn 0.707107 0.000000 0.707106
vn 0.707107 0.000000 0.707106
vn 0.707107 0.000000 0.707106
vn -0.707107 0.000000 -0.707106
vn -0.707107 0.000000 -0.707106
vn -0.707107 0.000000 -0.707106
vn -0.707107 0.000000 -0.707106
vn 0.000000 0.707108 -0.707106
vn 0.000000 0.707108 -0.707106
vn 0.000000 0.707108 -0.707106
vn 0.000000 0.707108 -0.707106
vn 0.707107 0.000000 -0.707106
vn 0.707107 0.000000 -0.707106
vn 0.707107 0.000000 -0.707106
vn 0.707107 0.000000 -0.707106
vn 0.000000 0.707108 0.707106
vn 0.000000 0.707108 0.707106
vn 0.000000 0.707108 0.707106
vn 0.000000 0.707108 0.707106
vn 0.707107 0.000000 0.707107
vn 0.707107 0.000000 0.707107
vn 0.707107 0.000000 0.707107
vn 0.707107 0.000000 0.707107
vn 0.707106 0.707107 0.000000
vn 0.707106 0.707107 0.000000
vn 0.707106 0.707107 0.000000
vn 0.707106 0.707107 0.000000
vn 0.000000 0.707108 -0.707106
vn 0.000000 0.707108 -0.707106
vn 0.000000 0.707108 -0.707106
vn 0.000000 0.707108 -0.707106
vn 0.707107 0.000000 -0.707107
vn 0.707107 0.000000 -0.707107
vn 0.707107 0.000000 -0.707107
vn 0.707107 0.000000 -0.707107
vn 0.000000 -0.707105 -0.707109
vn 0.000000 -0.707105 -0.707109
vn 0.000000 -0.707105 -0.707109
vn 0.000000 -0.707105 -0.707109
vn -0.707109 -0.707104 0.000000
vn -0.707109 -0.707104 0.000000
vn -0.707109 -0.707104 0.000000
vn -0.707109 -0.707104 0.000000
vn 0.000000 -0.707105 -0.707109
vn 0.000000 -0.707105 -0.707109
vn 0.000000 -0.707105 -0.707109
vn 0.000000 -0.707105 -0.707109
vn 0.707108 -0.707105 0.000000
vn 0.707108 -0.707105 0.000000
vn 0.707108 -0.707105 0.000000
vn 0.707108 -0.707105 0.000000
vn 0.000000 -0.707105 0.707109
vn 0.000000 -0.707105 0.707109
vn 0.000000 -0.707105 0.707109
vn 0.000000 -0.707105 0.707109
vn 0.000000 -0.707105 0.707109
vn 0.000000 -0.707105 0.707109
vn 0.000000 -0.707105 0.707109
vn 0.000000 -0.707105 0.707109
vn 0.707109 -0.707104 0.000000
vn 0.707109 -0.707104 0.000000
vn 0.707109 -0.707104 0.000000
vn 0.707109 -0.707104 0.000000
vn -0.707109 -0.707104 0.000000
vn -0.707109 -0.707104 0.000000
vn -0.707109 -0.707104 0.000000
vn -0.707109 -0.707104 0.000000
vn -0.707107 0.000000 0.707106
vn -0.707107 0.000000 0.707106
vn -0.707107 0.000000 0.707106
vn -0.707107 0.000000 0.707106
vn -0.707107 0.707107 0.000000
vn -0.707107 0.707107 0.000000
vn -0.707107 0.707107 0.000000
vn -0.707107 0.707107 0.000000
vn -0.707107 0.000000 -0.707106
vn -0.707107 0.000000 -0.707106
vn -0.707107 0.000000 -0.707106
vn -0.707107 0.000000 -0.707106
vn -1.000000 0.000000 0.000000
vn -1.000000 0.000000 0.000000
vn -1.000000 0.000000 0.000000
vn -1.000000 0.000000 0.000000
vn 0.000000 0.000000 -1.000000
vn 0.000000 0.000000 -1.000000
vn 0.000000 0.000000 -1.000000
vn 0.000000 0.000000 -1.000000
vn 1.000000 0.000000 0.000000
vn 1.000000 0.000000 0.000000
vn 1.000000 0.000000 0.000000
vn 1.000000 0.000000 0.000000
vn 0.000000 0.000000 1.000000
vn 0.000000 0.000000 1.000000
vn 0.000000 0.000000 1.000000
vn 0.000000 0.000000 1.000000
vn 0.000000 0.000000 1.000000
vn 0.000000 0.000000 1.000000
vn 0.000000 0.000000 1.000000
vn 0.000000 0.000000 1.000000
vn 0.000000 0.000000 -1.000000
vn 0.000000 0.000000 -1.000000
vn 0.000000 0.000000 -1.000000
vn 0.000000 0.000000 -1.000000
vn -1.000000 0.000000 0.000000
vn -1.000000 0.000000 0.000000
vn -1.000000 0.000000 0.000000
vn -1.000000 0.000000 0.000000
vn 1.000000 0.000000 0.000000
vn 1.000000 0.000000 0.000000
vn 1.000000 0.000000 0.000000
vn 1.000000 0.000000 0.000000
vn 0.000000 -1.000000 0.000000
vn 0.000000 -1.000000 0.000000
vn 0.000000 -1.000000 0.000000
vn 0.000000 -1.000000 0.000000
vn 0.000000 -1.000000 0.000000
vn 0.000000 -1.000000 0.000000
vn 0.000000 -1.000000 0.000000
vn 0.000000 -1.000000 0.000000
vn 0.000000 1.000000 0.000000
vn 0.000000 1.000000 0.000000
vn 0.000000 1.000000 0.000000
vn 0.000000 1.000000 0.000000
vn 0.000000 1.000000 0.000000
vn 0.000000 1.000000 0.000000
vn 0.000000 1.000000 0.000000
vn 0.000000 1.000000 0.000000
vn -0.577352 0.577351 0.577348
vn -0.577352 0.577351 0.577348
vn -0.577352 0.577351 0.577348
vn 0.577352 0.577351 0.577348
vn 0.577351 0.577351 0.577348
vn 0.577351 0.577351 0.577348
vn -0.577352 0.577351 -0.577348
vn -0.577352 0.577351 -0.577348
vn -0.577352 0.577351 -0.577348
vn 0.577351 0.577351 -0.577348
vn 0.577351 0.577351 -0.577348
vn 0.577352 0.577351 -0.577348
vn 0.577350 0.577350 0.577351
vn 0.577350 0.577350 0.577351
vn 0.577350 0.577350 0.577351
vn 0.577350 0.577350 -0.577351
vn 0.577350 0.577350 -0.577351
vn 0.577350 0.577350 -0.577351
vn -0.577352 -0.577347 -0.577352
vn -0.577352 -0.577347 -0.577352
vn -0.577352 -0.577347 -0.577351
vn 0.577351 -0.577348 -0.577352
vn 0.577351 -0.577348 -0.577352
vn 0.577351 -0.577348 -0.577352
vn -0.577352 -0.577347 0.577351
vn -0.577352 -0.577347 0.577352
vn -0.577352 -0.577347 0.577352
vn 0.577351 -0.577348 0.577352
vn 0.577351 -0.577348 0.577352
vn 0.577351 -0.577348 0.577352
vn 0.577352 -0.577348 -0.577351
vn 0.577352 -0.577348 -0.577351
vn 0.577352 -0.577348 -0.577351
vn -0.577352 -0.577348 0.577351
vn -0.577352 -0.577348 0.577351
vn -0.577352 -0.577348 0.577351
vn 0.577352 -0.577348 0.577351
vn 0.577352 -0.577348 0.577351
vn 0.577352 -0.577348 0.577351
vn -0.577351 0.577351 0.577348
vn -0.577351 0.577351 0.577348
vn -0.577352 0.577351 0.577348
vn -0.577352 0.577351 -0.577348
vn -0.577351 0.577351 -0.577348
vn -0.577351 0.577351 -0.577348
vn -0.577352 -0.577348 -0.577351
vn -0.577352 -0.577348 -0.577351
vn -0.577352 -0.577348 -0.577351
s off
g long_rail fan_rail
usemtl initialShadingGroup
f 1/5/1 3/3/2 26/2/3 25/6/4
f 2/33/5 1/34/6 5/35/7 4/36/8
f 3/3/9 2/33/10 8/38/11 7/4/12
f 4/36/13 6/25/14 10/28/15 12/37/16
f 6/25/17 5/29/18 38/30/19 37/26/20
f 7/4/21 9/7/22 21/8/23 20/1/24
f 9/39/25 8/38/26 12/37/27 11/40/28
f 11/31/29 10/28/30 33/27/31 32/32/32
f 13/41/33 15/42/34 42/43/35 41/44/36
f 14/12/37 13/15/38 30/16/39 29/9/40
f 15/42/41 14/12/42 17/11/43 16/45/44
f 16/45/45 18/47/46 44/48/47 43/46/48
f 18/13/49 17/11/50 23/10/51 22/14/52
f 19/49/53 21/50/54 32/51/55 31/52/56
f 20/1/57 19/49/58 27/55/59 26/2/60
f 22/59/61 24/60/62 48/61/63 47/62/64
f 24/60/65 23/10/66 29/9/67 28/63/68
f 25/57/69 27/55/70 39/54/71 38/58/72
f 28/63/73 30/66/74 35/67/75 34/64/76
f 31/52/77 33/53/78 37/56/79 39/54/80
f 34/64/81 36/68/82 46/65/83 48/61/84
f 36/19/85 35/23/86 41/24/87 40/20/88
f 40/20/89 42/43/90 43/46/91 45/17/92
f 45/17/93 44/21/94 47/22/95 46/18/96
f 20/1/97 26/2/98 3/3/99 7/4/100
f 9/7/101 11/69/102 32/70/103 21/8/104
f 29/9/105 23/10/106 17/11/107 14/12/108
f 25/6/109 38/71/110 5/72/111 1/5/112
f 41/73/113 35/74/114 30/16/115 13/15/116
f 47/75/117 44/76/118 18/13/119 22/14/120
f 45/17/121 46/18/122 36/19/123 40/20/124
f 6/25/125 37/26/126 33/27/127 10/28/128
f 28/63/129 34/64/130 48/61/131 24/60/132
f 19/49/133 31/52/134 39/54/135 27/55/136
f 16/45/137 43/46/138 42/43/139 15/42/140
f 4/36/141 12/37/142 8/38/143 2/33/144
f 1/34/145 2/33/146 3/3/147
f 4/36/148 5/35/149 6/25/150
f 7/4/151 8/38/152 9/39/153
f 10/28/154 11/40/155 12/37/156
f 13/41/157 14/12/158 15/42/159
f 16/45/160 17/11/161 18/47/162
f 19/49/163 20/1/164 21/50/165
f 22/59/166 23/10/167 24/60/168
f 25/57/169 26/2/170 27/55/171
f 28/63/172 29/9/173 30/66/174
f 31/52/175 32/51/176 33/53/177
f 34/64/178 35/67/179 36/68/180
f 37/56/181 38/58/182 39/54/183
f 40/20/184 41/44/185 42/43/186
f 43/46/187 44/48/188 45/17/189
f 46/65/190 47/62/191 48/61/192
