# This file uses centimeters as units for non-parametric coordinates.

mtllib rail corner.mtl
g default
v -0.691565 0.763130 0.500000
v -0.691565 0.838232 0.424899
v -0.766667 0.763130 0.424899
v -0.535102 0.838232 0.424899
v -0.535102 0.763130 0.500000
v -0.460000 0.763130 0.424899
v -0.766667 0.763130 -0.424899
v -0.691565 0.838232 -0.424899
v -0.691565 0.763130 -0.500000
v -0.460000 0.763130 -0.424899
v -0.535102 0.763130 -0.500000
v -0.535102 0.838232 -0.424899
v 0.766667 0.763130 0.424899
v 0.691565 0.838232 0.424899
v 0.691565 0.763130 0.500000
v 0.691565 0.763130 -0.500000
v 0.691565 0.838232 -0.424899
v 0.766667 0.763130 -0.424899
v 0.460000 0.763130 0.424899
v 0.535102 0.763130 0.500000
v 0.535102 0.838232 0.424899
v 0.535102 0.838232 -0.424899
v 0.535102 0.763130 -0.500000
v 0.460000 0.763130 -0.424899
v 0.535102 0.537796 0.424899
v 0.535102 0.612898 0.500000
v 0.460000 0.612898 0.424899
v 0.460000 0.612898 -0.424899
v 0.535102 0.612898 -0.500000
v 0.535102 0.537796 -0.424899
v 0.691565 0.612898 -0.500000
v 0.766667 0.612898 -0.424899
v 0.691565 0.537796 -0.424899
v 0.766667 0.612898 0.424899
v 0.691565 0.612898 0.500000
v 0.691565 0.537796 0.424899
v 0.766667 -0.763129 -0.424899
v 0.691565 -0.838232 -0.424899
v 0.691565 -0.763129 -0.500000
v 0.691565 -0.763129 0.500000
v 0.691565 -0.838232 0.424899
v 0.766667 -0.763129 0.424899
v -0.513105 -0.763129 0.500000
v -0.513105 -0.838232 0.424899
v -0.406896 -0.838232 0.424899
v -0.406896 -0.763129 0.500000
v -0.387684 -0.536256 -0.427684
v -0.408661 -0.608859 -0.500000
v -0.517128 -0.593383 -0.500000
v -0.535798 -0.482660 -0.500000
v -0.460000 -0.463939 -0.427684
v -0.691565 -0.763129 -0.500000
v -0.691565 -0.838232 -0.424899
v -0.766667 -0.763129 -0.424899
v -0.406896 -0.763129 -0.500000
v -0.406896 -0.838232 -0.424899
v -0.513105 -0.838232 -0.424899
v -0.513105 -0.763129 -0.500000
v -0.766667 -0.763129 0.424899
v -0.691565 -0.838232 0.424899
v -0.691565 -0.763129 0.500000
v 0.691565 -0.536256 0.424899
v 0.691565 -0.611359 0.500000
v 0.766667 -0.611359 0.424899
v 0.691565 -0.536256 -0.424899
v 0.766667 -0.611359 -0.424899
v 0.691565 -0.611359 -0.500000
v -0.691565 -0.483151 -0.500000
v -0.691565 -0.589361 -0.500000
v -0.766667 -0.589361 -0.424899
v -0.766667 -0.483151 -0.424899
v -0.766667 -0.483151 0.424899
v -0.766667 -0.589361 0.424899
v -0.691565 -0.589361 0.500000
v -0.691565 -0.483151 0.500000
v -0.460000 -0.463939 0.427684
v -0.532605 -0.484917 0.500000
v -0.517128 -0.593383 0.500000
v -0.406403 -0.612052 0.500000
v -0.387684 -0.536256 0.427684
vt 0.809187 0.511910
vt 0.946447 0.221926
vt 0.807633 0.483396
vt 0.824473 0.288266
vt 0.823307 0.313343
vt 0.815584 0.330410
vt 0.318947 0.491550
vt 0.320423 0.473775
vt 0.165146 0.524096
vt 0.153001 0.541193
vt 0.358611 0.621157
vt 0.358517 0.644321
vt 0.160883 0.641461
vt 0.376337 0.471928
vt 0.150576 0.584072
vt 0.360236 0.585217
vt 0.183094 0.602021
vt 0.360881 0.558842
vt 0.342804 0.518755
vt 0.172196 0.584754
vt 0.173914 0.557124
vt 0.183238 0.544337
vt 0.326498 0.518694
vt 0.334559 0.537220
vt 0.330557 0.235946
vt 0.310799 0.236421
vt 0.320228 0.397585
vt 0.337104 0.423222
vt 0.515313 0.479126
vt 0.521997 0.488990
vt 0.072241 0.380934
vt 0.101787 0.218777
vt 0.603301 0.256446
vt 0.565560 0.441356
vt 0.582316 0.252662
vt 0.368033 0.236341
vt 0.577977 0.231349
vt 0.103199 0.198390
vt 0.594934 0.221054
vt 0.629756 0.204100
vt 0.615367 0.191534
vt 0.592453 0.169368
vt 0.081550 0.197563
vt 0.081754 0.217863
vt 0.047775 0.217778
vt 0.038962 0.376900
vt 0.530717 0.514170
vt 0.346845 0.389860
vt 0.355054 0.248566
vt 0.372443 0.253267
vt 0.366838 0.389381
vt 0.544745 0.436971
vt 0.534363 0.456001
vt 0.627062 0.172272
vt 0.563054 0.519562
vt 0.746922 0.040528
vt 0.557692 0.500474
vt 0.547833 0.469354
vt 0.566420 0.462686
vt 0.300246 0.394053
vt 0.092309 0.382677
vt 0.334360 0.489067
vt 0.356801 0.478307
vt 0.364163 0.522050
vt 0.812819 0.288640
vt 0.810786 0.313353
vt 0.611499 0.234015
vt 0.573866 0.493960
vt 0.940671 0.200309
vt 0.820053 0.273249
vt 0.641796 0.184123
vt 0.357250 0.404481
vt 0.315057 0.216996
vt 0.028166 0.214403
vt 0.536231 0.532604
vt 0.188961 0.585404
vt 0.189904 0.561581
vt 0.160607 0.618186
vt 0.806957 0.465191
vt 0.956649 0.251458
vt 0.145409 0.513452
vt 0.129802 0.578179
vt 0.339757 0.448479
vt 0.382869 0.524058
vt 0.018660 0.377711
vt 0.033738 0.395313
vt 0.602011 0.152121
vt 0.045221 0.198341
vt 0.575808 0.193770
vt 0.565250 0.202602
vt 0.069506 0.401280
vt 0.091041 0.402944
vt 0.301724 0.414097
vt 0.352771 0.213478
vt 0.730314 0.029304
vt 0.576906 0.514428
vt 0.703524 0.010193
vt 0.974983 0.247390
vt 0.964315 0.213849
vt 0.810254 0.531801
vt 0.965420 0.270532
vt 0.139523 0.479994
vn -0.707107 0.000000 0.707106
vn -0.707107 0.000000 0.707106
vn -0.707107 0.000000 0.707106
vn -0.707107 0.000000 0.707106
vn 0.000000 0.707108 0.707106
vn 0.000000 0.707108 0.707106
vn 0.000000 0.707108 0.707106
vn 0.000000 0.707108 0.707106
vn -0.707108 0.707106 0.000000
vn -0.707108 0.707106 0.000000
vn -0.707108 0.707106 0.000000
vn -0.707108 0.707106 0.000000
vn 0.707107 0.707107 0.000000
vn 0.707107 0.707107 0.000000
vn 0.707107 0.707107 0.000000
vn 0.707107 0.707107 0.000000
vn 0.706307 0.001509 0.707904
vn 0.706307 0.001509 0.707904
vn 0.682236 0.042789 0.729879
vn 0.669014 0.064144 0.740477
vn -0.707107 0.000000 -0.707106
vn -0.707107 0.000000 -0.707106
vn -0.707107 0.000000 -0.707106
vn -0.707107 0.000000 -0.707106
vn 0.000000 0.707108 -0.707106
vn 0.000000 0.707108 -0.707106
vn 0.000000 0.707108 -0.707106
vn 0.000000 0.707108 -0.707106
vn 0.698768 0.000609 -0.715348
vn 0.698768 0.000609 -0.715348
vn 0.662041 0.063763 -0.746751
vn 0.676194 0.040315 -0.735620
vn 0.707107 0.000000 0.707107
vn 0.707107 0.000000 0.707107
vn 0.707107 0.000000 0.707107
vn 0.707107 0.000000 0.707107
vn 0.707107 0.707107 0.000000
vn 0.707107 0.707107 0.000000
vn 0.707107 0.707107 0.000000
vn 0.707107 0.707107 0.000000
vn 0.000000 0.707108 0.707106
vn 0.000000 0.707108 0.707106
vn 0.000000 0.707108 0.707106
vn 0.000000 0.707108 0.707106
vn 0.707107 0.000000 -0.707107
vn 0.707107 0.000000 -0.707107
vn 0.707107 0.000000 -0.707107
vn 0.707107 0.000000 -0.707107
vn 0.000000 0.707108 -0.707106
vn 0.000000 0.707108 -0.707106
vn 0.000000 0.707108 -0.707106
vn 0.000000 0.707108 -0.707106
vn -0.707107 0.707107 0.000000
vn -0.707107 0.707107 0.000000
vn -0.707107 0.707107 0.000000
vn -0.707107 0.707107 0.000000
vn -0.707107 0.000000 0.707107
vn -0.707107 0.000000 0.707107
vn -0.707107 0.000000 0.707107
vn -0.707107 0.000000 0.707107
vn -0.707107 0.000000 -0.707107
vn -0.707107 0.000000 -0.707107
vn -0.707107 0.000000 -0.707107
vn -0.707107 0.000000 -0.707107
vn -0.707111 -0.707102 0.000000
vn -0.707111 -0.707102 0.000000
vn -0.707111 -0.707102 0.000000
vn -0.707111 -0.707102 0.000000
vn 0.000000 -0.707102 0.707111
vn 0.000000 -0.707102 0.707111
vn 0.000000 -0.707102 0.707111
vn 0.000000 -0.707102 0.707111
vn 0.000000 -0.707102 -0.707111
vn 0.000000 -0.707102 -0.707111
vn 0.000000 -0.707102 -0.707111
vn 0.000000 -0.707102 -0.707111
vn 0.707111 -0.707102 0.000000
vn 0.707111 -0.707102 0.000000
vn 0.707111 -0.707102 0.000000
vn 0.707111 -0.707102 0.000000
vn 0.707106 0.000000 -0.707107
vn 0.707106 0.000000 -0.707107
vn 0.707106 0.000000 -0.707107
vn 0.707106 0.000000 -0.707107
vn 0.707116 -0.707098 0.000000
vn 0.707116 -0.707098 0.000000
vn 0.707116 -0.707098 0.000000
vn 0.707116 -0.707098 0.000000
vn 0.000000 -0.707100 -0.707113
vn 0.000000 -0.707100 -0.707113
vn 0.000000 -0.707100 -0.707114
vn 0.000000 -0.707100 -0.707114
vn 0.707106 0.000000 0.707107
vn 0.707106 0.000000 0.707107
vn 0.707106 0.000000 0.707107
vn 0.707106 0.000000 0.707107
vn 0.000000 -0.707100 0.707113
vn 0.000000 -0.707100 0.707113
vn 0.000000 -0.707100 0.707114
vn 0.000000 -0.707100 0.707114
vn 0.000000 0.000000 1.000000
vn 0.000000 0.000000 1.000000
vn 0.000000 0.000000 1.000000
vn 0.000000 0.000000 1.000000
vn 0.000000 -0.707097 0.707116
vn 0.000000 -0.707097 0.707116
vn 0.000000 -0.707098 0.707116
vn 0.000000 -0.707098 0.707116
vn 0.000000 -1.000000 0.000000
vn 0.000000 -1.000000 0.000000
vn 0.000000 -1.000000 0.000000
vn 0.000000 -1.000000 0.000000
vn 0.707114 0.707099 0.000000
vn 0.707114 0.707099 0.000000
vn 0.707114 0.707099 0.000000
vn 0.707114 0.707099 0.000000
vn 0.069074 0.665976 -0.742768
vn 0.047041 0.679739 -0.731944
vn 0.001715 0.706292 -0.707919
vn 0.001715 0.706292 -0.707919
vn 0.000000 0.000000 -1.000000
vn 0.000000 0.000000 -1.000000
vn 0.000000 0.000000 -1.000000
vn 0.000000 0.000000 -1.000000
vn 0.000000 0.000000 -1.000000
vn 0.000000 0.000000 -1.000000
vn 0.000000 0.000000 -1.000000
vn -0.707107 0.000000 -0.707106
vn -0.707107 0.000000 -0.707106
vn -0.707107 0.000000 -0.707106
vn -0.707107 0.000000 -0.707106
vn 0.000000 -0.707098 -0.707116
vn 0.000000 -0.707098 -0.707116
vn 0.000000 -0.707097 -0.707116
vn 0.000000 -0.707097 -0.707116
vn -0.707117 -0.707097 0.000000
vn -0.707117 -0.707097 0.000000
vn -0.707117 -0.707097 0.000000
vn -0.707117 -0.707097 0.000000
vn -0.707107 0.000000 0.707106
vn -0.707107 0.000000 0.707106
vn -0.707107 0.000000 0.707106
vn -0.707107 0.000000 0.707106
vn 0.707111 0.707102 0.000000
vn 0.707111 0.707102 0.000000
vn 0.707111 0.707102 0.000000
vn 0.707111 0.707102 0.000000
vn 0.000693 0.698761 0.715355
vn 0.000693 0.698761 0.715355
vn 0.046984 0.672267 0.738817
vn 0.066502 0.660382 0.747980
vn -1.000000 0.000000 0.000000
vn -1.000000 0.000000 0.000000
vn -1.000000 0.000000 0.000000
vn -1.000000 0.000000 0.000000
vn 0.000000 0.000000 1.000000
vn 0.000000 0.000000 1.000000
vn 0.000000 0.000000 1.000000
vn 0.000000 -1.000000 0.000000
vn 0.000000 -1.000000 0.000000
vn 0.000000 -1.000000 0.000000
vn 0.000000 -1.000000 0.000000
vn 0.000000 0.000000 -1.000000
vn 0.000000 0.000000 -1.000000
vn 0.000000 0.000000 -1.000000
vn 0.000000 0.000000 -1.000000
vn 1.000000 0.000000 0.000000
vn 1.000000 0.000000 0.000000
vn 1.000000 0.000000 0.000000
vn 1.000000 0.000000 0.000000
vn 0.000000 0.000000 1.000000
vn 0.000000 0.000000 1.000000
vn 0.000000 0.000000 1.000000
vn 0.000000 0.000000 1.000000
vn 0.000000 0.000000 -1.000000
vn 0.000000 0.000000 -1.000000
vn 0.000000 0.000000 1.000000
vn 0.000000 0.000000 1.000000
vn -1.000000 0.000000 0.000000
vn -1.000000 0.000000 0.000000
vn 0.000000 0.000000 1.000000
vn 0.000000 0.000000 1.000000
vn 1.000000 0.000000 0.000000
vn 1.000000 0.000000 0.000000
vn 1.000000 0.000000 0.000000
vn 1.000000 0.000000 0.000000
vn 0.000000 0.000000 -1.000000
vn 0.000000 0.000000 -1.000000
vn 0.000000 0.000000 -1.000000
vn -1.000000 0.000000 0.000000
vn -1.000000 0.000000 0.000000
vn 0.000000 0.000000 1.000000
vn 0.000000 -1.000000 0.000000
vn 0.000000 -1.000000 0.000000
vn 0.000000 -1.000000 0.000000
vn 0.000000 -1.000000 0.000000
vn -1.000000 0.000000 0.000000
vn -1.000000 0.000000 0.000000
vn -1.000000 0.000000 0.000000
vn -1.000000 0.000000 0.000000
vn 0.000000 1.000000 0.000000
vn 0.000000 1.000000 0.000000
vn 0.000000 1.000000 0.000000
vn 0.000000 1.000000 0.000000
vn 1.000000 0.000000 0.000000
vn 1.000000 0.000000 0.000000
vn 1.000000 0.000000 0.000000
vn 1.000000 0.000000 0.000000
vn 0.000000 1.000000 0.000000
vn 0.000000 1.000000 0.000000
vn 0.000000 1.000000 0.000000
vn 0.000000 1.000000 0.000000
vn 0.000000 1.000000 0.000000
vn 0.000000 1.000000 0.000000
vn 0.000000 1.000000 0.000000
vn 0.000000 1.000000 0.000000
vn -0.577351 0.577349 0.577351
vn -0.577351 0.577349 0.577351
vn -0.577351 0.577349 0.577351
vn 0.577351 0.577350 0.577350
vn 0.577350 0.577350 0.577350
vn 0.577351 0.577350 0.577350
vn -0.577351 0.577349 -0.577351
vn -0.577351 0.577349 -0.577351
vn -0.577351 0.577349 -0.577351
vn 0.577351 0.577350 -0.577350
vn 0.577350 0.577350 -0.577350
vn 0.577351 0.577350 -0.577350
vn 0.577351 0.577349 0.577351
vn 0.577351 0.577349 0.577351
vn 0.577351 0.577349 0.577351
vn 0.577351 0.577349 -0.577351
vn 0.577351 0.577349 -0.577351
vn 0.577351 0.577349 -0.577351
vn -0.577351 0.577349 0.577351
vn -0.577351 0.577349 0.577351
vn -0.577351 0.577349 0.577351
vn -0.577351 0.577349 -0.577351
vn -0.577351 0.577349 -0.577351
vn -0.577351 0.577349 -0.577351
vn -0.577354 -0.577346 0.577351
vn -0.577354 -0.577346 0.577351
vn -0.577354 -0.577346 0.577351
vn -0.577354 -0.577346 -0.577351
vn -0.577354 -0.577346 -0.577351
vn -0.577354 -0.577346 -0.577351
vn 0.577354 -0.577346 -0.577351
vn 0.577354 -0.577346 -0.577351
vn 0.577354 -0.577346 -0.577351
vn 0.577354 -0.577346 0.577351
vn 0.577354 -0.577346 0.577351
vn 0.577354 -0.577346 0.577351
vn 0.577357 -0.577342 -0.577352
vn 0.577357 -0.577342 -0.577352
vn 0.577357 -0.577342 -0.577352
vn 0.577357 -0.577342 0.577352
vn 0.577357 -0.577342 0.577352
vn 0.577357 -0.577342 0.577352
vn 0.392121 0.393970 -0.831281
vn -0.577357 -0.577342 -0.577352
vn -0.577357 -0.577342 -0.577352
vn -0.577357 -0.577342 -0.577352
vn -0.577357 -0.577342 0.577352
vn -0.577357 -0.577342 0.577352
vn -0.577357 -0.577342 0.577352
vn 0.577352 0.577344 0.577355
vn 0.577352 0.577344 0.577354
vn 0.577352 0.577344 0.577354
vn 0.577352 0.577344 -0.577355
vn 0.577352 0.577344 -0.577354
vn 0.577352 0.577344 -0.577354
vn 0.393969 0.392122 0.831281
s 1
g corner_rail fan_rail
usemtl initialShadingGroup
f 1/1/1 3/100/2 72/96/3 75/68/4
s off
f 2/2/5 1/99/6 5/98/7 4/80/8
f 3/69/9 2/2/10 8/4/11 7/70/12
f 4/80/13 6/101/14 10/6/15 12/5/16
s 2
f 6/79/17 5/3/18 77/59/19 76/34/20
s 3
f 7/70/21 9/65/22 68/40/23 71/71/24
s off
f 9/65/25 8/4/26 12/5/27 11/66/28
s 4
f 11/66/29 10/6/30 51/33/31 50/67/32
s off
f 13/7/33 15/62/34 35/19/35 34/23/36
f 14/8/37 13/7/38 18/9/39 17/81/40
f 15/62/41 14/8/42 21/83/43 20/63/44
f 16/10/45 18/9/46 32/22/47 31/21/48
f 17/81/49 16/10/50 23/15/51 22/82/52
f 19/11/53 21/12/54 22/13/55 24/78/56
f 20/63/57 19/14/58 27/84/59 26/64/60
f 24/78/61 23/15/62 29/20/63 28/17/64
f 25/18/65 27/16/66 28/17/67 30/76/68
f 26/64/69 25/18/70 36/24/71 35/19/72
f 30/76/73 29/20/74 31/21/75 33/77/76
f 33/77/77 32/22/78 34/23/79 36/24/80
f 37/25/81 39/94/82 67/36/83 66/49/84
f 38/26/85 37/25/86 42/27/87 41/60/88
s 5
f 39/73/89 38/26/90 56/32/91 55/38/92
s off
f 40/28/93 42/27/94 64/48/95 63/72/96
s 6
f 41/60/97 40/93/98 46/92/99 45/61/100
s 7
f 43/30/101 46/29/102 79/53/103 78/58/104
s 6
f 44/31/105 43/91/106 61/86/107 60/46/108
s 8
f 45/61/109 44/31/110 57/44/111 56/32/112
s off
f 47/35/113 51/33/114 76/34/115 80/52/116
s 4
f 48/37/117 47/35/118 65/50/119 67/36/120
s 9
f 49/39/121 48/37/122 55/90/123 58/89/124
f 50/67/125 49/39/121 69/41/126 68/40/127
s 3
f 52/42/128 54/87/129 70/54/130 69/41/131
s 5
f 53/45/132 52/88/133 58/43/134 57/44/135
s off
f 54/74/136 53/45/137 60/46/138 59/85/139
s 1
f 59/75/140 61/47/141 74/57/142 73/55/143
s off
f 62/51/144 64/48/145 66/49/146 65/50/147
s 2
f 63/72/148 62/51/149 80/52/150 79/53/151
s 10
f 71/71/152 70/54/153 73/95/154 72/56/155
s 7
f 75/68/156 74/57/157 78/58/104 77/59/158
s 8
f 38/26/159 41/60/160 45/61/109 56/32/112
f 53/45/161 57/44/111 44/31/110 60/46/162
s off
f 23/15/163 16/10/164 31/21/165 29/20/166
f 18/9/167 13/7/168 34/23/169 32/22/170
f 15/62/171 20/63/172 26/64/173 35/19/174
s 9
f 9/65/175 11/66/176 50/67/125 68/40/127
s 7
f 5/3/177 1/1/178 75/68/156 77/59/158
s 10
f 3/69/179 7/70/180 71/71/152 72/56/155
s 7
f 46/29/102 40/28/181 63/72/182 79/53/103
s off
f 66/49/183 64/48/184 42/27/185 37/25/186
s 9
f 39/94/187 55/90/123 48/37/122 67/36/188
f 69/41/126 49/39/121 58/89/124 52/42/189
s 10
f 73/95/154 70/54/153 54/87/190 59/97/191
s 7
f 78/58/104 74/57/157 61/47/192 43/30/101
s off
f 36/24/193 25/18/194 30/76/195 33/77/196
f 27/16/197 19/11/198 24/78/199 28/17/200
f 80/52/201 62/51/202 65/50/203 47/35/204
f 6/79/205 76/34/206 51/33/207 10/6/208
f 4/80/209 12/5/210 8/4/211 2/2/212
f 14/8/213 17/81/214 22/102/215 21/83/216
f 1/99/217 2/2/218 3/69/219
f 4/80/220 5/98/221 6/101/222
f 7/70/223 8/4/224 9/65/225
f 10/6/226 11/66/227 12/5/228
f 13/7/229 14/8/230 15/62/231
f 16/10/232 17/81/233 18/9/234
f 19/14/235 20/63/236 21/83/237
f 22/82/238 23/15/239 24/78/240
f 25/18/241 26/64/242 27/84/243
f 28/17/244 29/20/245 30/76/246
f 31/21/247 32/22/248 33/77/249
f 34/23/250 35/19/251 36/24/252
f 37/25/253 38/26/254 39/73/255
f 40/93/256 41/60/257 42/27/258
s 6
f 43/91/106 44/31/105 45/61/100 46/92/99
s 4
f 47/35/118 48/37/117 49/39/259 50/67/32 51/33/31
s off
f 52/88/260 53/45/261 54/74/262
s 5
f 55/38/92 56/32/91 57/44/135 58/43/134
s off
f 59/85/263 60/46/264 61/86/265
f 62/51/266 63/72/267 64/48/268
f 65/50/269 66/49/270 67/36/271
s 3
f 68/40/23 69/41/131 70/54/130 71/71/24
s 1
f 72/96/3 73/55/143 74/57/142 75/68/4
s 2
f 76/34/20 77/59/19 78/58/272 79/53/151 80/52/150
