# This file uses centimeters as units for non-parametric coordinates.

mtllib cold air sprayer.mtl
g default
v -30.403424 11.565283 -5.844766
v -30.710325 11.565283 -5.844766
v -30.863775 11.565283 -5.578983
v -30.710325 11.565283 -5.313200
v -30.403424 11.565283 -5.313200
v -30.249974 11.565283 -5.578983
v -30.403424 11.879002 -5.844766
v -30.710325 11.879002 -5.844766
v -30.863775 11.879002 -5.578983
v -30.710325 11.879002 -5.313200
v -30.403424 11.879002 -5.313200
v -30.249974 11.879002 -5.578983
v -30.556875 11.565283 -5.578983
v -30.470764 11.879002 -5.728131
v -30.642985 11.879002 -5.728131
v -30.729096 11.879002 -5.578983
v -30.642985 11.879002 -5.429835
v -30.470764 11.879002 -5.429835
v -30.384653 11.879002 -5.578983
v -30.470764 11.719821 -5.728133
v -30.642985 11.719821 -5.728133
v -30.556875 11.719821 -5.578985
v -30.729096 11.719821 -5.578985
v -30.642985 11.719820 -5.429836
v -30.470764 11.719821 -5.429837
v -30.384653 11.719821 -5.578985
vt 0.580649 0.760298
vt 0.580649 0.672539
vt 0.504648 0.628659
vt 0.428647 0.672539
vt 0.428647 0.760298
vt 0.504648 0.804177
vt 0.534639 0.612385
vt 0.466706 0.626774
vt 0.398774 0.641163
vt 0.330841 0.655552
vt 0.262909 0.669941
vt 0.194976 0.684330
vt 0.127044 0.698719
vt 0.519930 0.542943
vt 0.451998 0.557332
vt 0.384065 0.571721
vt 0.316133 0.586110
vt 0.248200 0.600499
vt 0.180268 0.614888
vt 0.112335 0.629277
vt 0.580664 0.672504
vt 0.504575 0.628662
vt 0.428633 0.672614
vt 0.428687 0.760326
vt 0.504656 0.804174
vt 0.580664 0.760314
vt 0.504648 0.716418
vt 0.504669 0.716423
vt 0.504591 0.770972
vt 0.457394 0.743644
vt 0.457449 0.689108
vt 0.504714 0.661869
vt 0.551948 0.689191
vt 0.551877 0.743762
vt 0.501897 0.746558
vt 0.477183 0.729088
vt 0.479957 0.698949
vt 0.507446 0.686278
vt 0.532150 0.703745
vt 0.529389 0.733888
vn 0.000000 0.000000 -1.000000
vn 0.000000 0.000000 -1.000000
vn 0.000000 0.000000 -1.000000
vn 0.000000 0.000000 -1.000000
vn -0.866025 0.000000 -0.500000
vn -0.866025 0.000000 -0.500000
vn -0.866025 0.000000 -0.500000
vn -0.866025 0.000000 -0.500000
vn -0.866026 0.000000 0.500000
vn -0.866026 0.000000 0.500000
vn -0.866026 0.000000 0.500000
vn -0.866026 0.000000 0.500000
vn 0.000000 0.000000 1.000000
vn 0.000000 0.000000 1.000000
vn 0.000000 0.000000 1.000000
vn 0.000000 0.000000 1.000000
vn 0.866025 0.000000 0.500000
vn 0.866025 0.000000 0.500000
vn 0.866025 0.000000 0.500000
vn 0.866025 0.000000 0.500000
vn 0.866025 0.000000 -0.500000
vn 0.866025 0.000000 -0.500000
vn 0.866025 0.000000 -0.500000
vn 0.866025 0.000000 -0.500000
vn 0.000000 -1.000000 0.000000
vn 0.000000 -1.000000 0.000000
vn 0.000000 -1.000000 0.000000
vn 0.000000 -1.000000 0.000000
vn 0.000000 -1.000000 0.000000
vn 0.000000 -1.000000 0.000000
vn 0.000000 -1.000000 0.000000
vn -0.000001 1.000000 0.000002
vn 0.000000 1.000000 0.000002
vn -0.000001 1.000000 0.000001
vn 0.000000 1.000000 0.000002
vn -0.000002 1.000000 0.000001
vn -0.000003 1.000000 -0.000001
vn -0.000002 1.000000 0.000000
vn 0.000000 1.000000 0.000000
vn 0.000000 1.000000 0.000000
vn 0.000000 1.000000 0.000000
vn 0.000000 1.000000 0.000000
vn 0.000000 1.000000 0.000000
vn 0.000000 1.000000 0.000000
vn 0.000000 1.000000 0.000000
vn 0.000000 1.000000 0.000000
vn 0.000000 1.000000 0.000000
vn 0.000000 1.000000 0.000000
vn 0.000000 1.000000 0.000000
vn 0.000000 1.000000 0.000000
vn 0.000000 1.000000 0.000000
vn 0.000000 1.000000 0.000000
vn 0.000000 1.000000 0.000000
vn 0.000000 1.000000 0.000000
vn 0.000000 1.000000 0.000000
vn 0.000000 1.000000 0.000000
vn 0.000000 1.000000 0.000000
vn 0.000000 1.000000 0.000000
vn 0.000000 1.000000 0.000000
vn 0.000000 1.000000 0.000000
vn 0.000000 1.000000 0.000000
vn 0.000000 1.000000 0.000000
vn -0.000000 -0.000009 1.000000
vn -0.000000 -0.000009 1.000000
vn -0.000000 -0.000009 1.000000
vn -0.000000 -0.000009 1.000000
vn 0.866025 -0.000004 0.500000
vn 0.866025 -0.000004 0.500000
vn 0.866025 -0.000004 0.500000
vn 0.866025 -0.000004 0.500000
vn 0.866025 0.000003 -0.500000
vn 0.866025 0.000003 -0.500000
vn 0.866025 0.000003 -0.500000
vn 0.866025 0.000003 -0.500000
vn -0.000001 0.000007 -1.000000
vn -0.000001 0.000007 -1.000000
vn -0.000001 0.000007 -1.000000
vn -0.000001 0.000007 -1.000000
vn -0.866025 0.000004 -0.500000
vn -0.866025 0.000004 -0.500000
vn -0.866025 0.000004 -0.500000
vn -0.866025 0.000004 -0.500000
vn -0.866025 -0.000004 0.500000
vn -0.866025 -0.000004 0.500000
vn -0.866025 -0.000004 0.500000
vn -0.866025 -0.000004 0.500000
s off
g pCylinder29 cold_air_diffuser group1
usemtl initialShadingGroup
f 1/7/1 2/8/2 8/15/3 7/14/4
f 2/8/5 3/9/6 9/16/7 8/15/8
f 3/9/9 4/10/10 10/17/11 9/16/12
f 4/10/13 5/11/14 11/18/15 10/17/16
f 5/11/17 6/12/18 12/19/19 11/18/20
f 6/12/21 1/13/22 7/20/23 12/19/24
s 1
f 2/2/25 1/1/26 13/27/27
f 3/3/28 2/2/25 13/27/27
f 4/4/29 3/3/28 13/27/27
f 5/5/30 4/4/29 13/27/27
f 6/6/31 5/5/30 13/27/27
f 1/1/26 6/6/31 13/27/27
s 2
f 20/35/32 21/36/33 22/28/34
f 21/36/33 23/37/35 22/28/34
f 23/37/35 24/38/36 22/28/34
f 24/38/36 25/39/37 22/28/34
f 25/39/37 26/40/38 22/28/34
f 26/40/38 20/35/32 22/28/34
s off
f 7/25/39 8/24/40 15/30/41 14/29/42
f 8/24/43 9/23/44 16/31/45 15/30/46
f 9/23/47 10/22/48 17/32/49 16/31/50
f 10/22/51 11/21/52 18/33/53 17/32/54
f 11/21/55 12/26/56 19/34/57 18/33/58
f 12/26/59 7/25/60 14/29/61 19/34/62
f 14/29/63 15/30/64 21/36/65 20/35/66
f 15/30/67 16/31/68 23/37/69 21/36/70
f 16/31/71 17/32/72 24/38/73 23/37/74
f 17/32/75 18/33/76 25/39/77 24/38/78
f 18/33/79 19/34/80 26/40/81 25/39/82
f 19/34/83 14/29/84 20/35/85 26/40/86
g default
v -30.403424 11.565283 0.975535
v -30.710325 11.565283 0.975535
v -30.863775 11.565283 1.241318
v -30.710325 11.565283 1.507101
v -30.403424 11.565283 1.507101
v -30.249974 11.565283 1.241318
v -30.403424 11.879002 0.975535
v -30.710325 11.879002 0.975535
v -30.863775 11.879002 1.241318
v -30.710325 11.879002 1.507101
v -30.403424 11.879002 1.507101
v -30.249974 11.879002 1.241318
v -30.556875 11.565283 1.241318
v -30.470764 11.879002 1.092170
v -30.642985 11.879002 1.092170
v -30.729096 11.879002 1.241318
v -30.642985 11.879002 1.390466
v -30.470764 11.879002 1.390466
v -30.384653 11.879002 1.241318
v -30.470764 11.719821 1.092168
v -30.642985 11.719821 1.092168
v -30.556875 11.719821 1.241317
v -30.729096 11.719821 1.241317
v -30.642985 11.719820 1.390465
v -30.470764 11.719821 1.390465
v -30.384653 11.719821 1.241316
vt 0.580650 0.760298
vt 0.580650 0.672539
vt 0.504648 0.628659
vt 0.428647 0.672539
vt 0.428647 0.760298
vt 0.504648 0.804177
vt 0.534639 0.612385
vt 0.466706 0.626774
vt 0.398774 0.641163
vt 0.330841 0.655552
vt 0.262909 0.669941
vt 0.194976 0.684330
vt 0.127044 0.698719
vt 0.519930 0.542943
vt 0.451998 0.557332
vt 0.384065 0.571721
vt 0.316133 0.586110
vt 0.248200 0.600499
vt 0.180268 0.614888
vt 0.112335 0.629277
vt 0.580664 0.672504
vt 0.504575 0.628662
vt 0.428633 0.672614
vt 0.428687 0.760326
vt 0.504656 0.804174
vt 0.580664 0.760314
vt 0.504648 0.716418
vt 0.504669 0.716423
vt 0.504591 0.770972
vt 0.457394 0.743644
vt 0.457449 0.689108
vt 0.504714 0.661869
vt 0.551948 0.689191
vt 0.551877 0.743762
vt 0.501897 0.746558
vt 0.477183 0.729088
vt 0.479957 0.698949
vt 0.507446 0.686278
vt 0.532150 0.703745
vt 0.529389 0.733888
vn 0.000000 0.000000 -1.000000
vn 0.000000 0.000000 -1.000000
vn 0.000000 0.000000 -1.000000
vn 0.000000 0.000000 -1.000000
vn -0.866025 0.000000 -0.500000
vn -0.866025 0.000000 -0.500000
vn -0.866025 0.000000 -0.500000
vn -0.866025 0.000000 -0.500000
vn -0.866026 0.000000 0.500000
vn -0.866026 0.000000 0.500000
vn -0.866026 0.000000 0.500000
vn -0.866026 0.000000 0.500000
vn 0.000000 0.000000 1.000000
vn 0.000000 0.000000 1.000000
vn 0.000000 0.000000 1.000000
vn 0.000000 0.000000 1.000000
vn 0.866025 0.000000 0.500000
vn 0.866025 0.000000 0.500000
vn 0.866025 0.000000 0.500000
vn 0.866025 0.000000 0.500000
vn 0.866025 0.000000 -0.500000
vn 0.866025 0.000000 -0.500000
vn 0.866025 0.000000 -0.500000
vn 0.866025 0.000000 -0.500000
vn 0.000000 -1.000000 0.000000
vn 0.000000 -1.000000 0.000000
vn 0.000000 -1.000000 0.000000
vn 0.000000 -1.000000 0.000000
vn 0.000000 -1.000000 0.000000
vn 0.000000 -1.000000 0.000000
vn 0.000000 -1.000000 0.000000
vn -0.000001 1.000000 0.000002
vn 0.000000 1.000000 0.000002
vn -0.000001 1.000000 0.000001
vn 0.000000 1.000000 0.000002
vn -0.000002 1.000000 0.000001
vn -0.000003 1.000000 -0.000001
vn -0.000002 1.000000 0.000000
vn 0.000000 1.000000 0.000000
vn 0.000000 1.000000 0.000000
vn 0.000000 1.000000 0.000000
vn 0.000000 1.000000 0.000000
vn 0.000000 1.000000 0.000000
vn 0.000000 1.000000 0.000000
vn 0.000000 1.000000 0.000000
vn 0.000000 1.000000 0.000000
vn 0.000000 1.000000 0.000000
vn 0.000000 1.000000 0.000000
vn 0.000000 1.000000 0.000000
vn 0.000000 1.000000 0.000000
vn 0.000000 1.000000 0.000000
vn 0.000000 1.000000 0.000000
vn 0.000000 1.000000 0.000000
vn 0.000000 1.000000 0.000000
vn 0.000000 1.000000 0.000000
vn 0.000000 1.000000 0.000000
vn 0.000000 1.000000 0.000000
vn 0.000000 1.000000 0.000000
vn 0.000000 1.000000 0.000000
vn 0.000000 1.000000 0.000000
vn 0.000000 1.000000 0.000000
vn 0.000000 1.000000 0.000000
vn -0.000000 -0.000009 1.000000
vn -0.000000 -0.000009 1.000000
vn -0.000000 -0.000009 1.000000
vn -0.000000 -0.000009 1.000000
vn 0.866025 -0.000004 0.500000
vn 0.866025 -0.000004 0.500000
vn 0.866025 -0.000004 0.500000
vn 0.866025 -0.000004 0.500000
vn 0.866025 0.000003 -0.500000
vn 0.866025 0.000003 -0.500000
vn 0.866025 0.000003 -0.500000
vn 0.866025 0.000003 -0.500000
vn -0.000001 0.000007 -1.000000
vn -0.000001 0.000007 -1.000000
vn -0.000001 0.000007 -1.000000
vn -0.000001 0.000007 -1.000000
vn -0.866025 0.000004 -0.500000
vn -0.866025 0.000004 -0.500000
vn -0.866025 0.000004 -0.500000
vn -0.866025 0.000004 -0.500000
vn -0.866025 -0.000004 0.500000
vn -0.866025 -0.000004 0.500000
vn -0.866025 -0.000004 0.500000
vn -0.866025 -0.000004 0.500000
s off
g cold_air_diffuser group1 pCylinder30
usemtl initialShadingGroup
f 27/47/87 28/48/88 34/55/89 33/54/90
f 28/48/91 29/49/92 35/56/93 34/55/94
f 29/49/95 30/50/96 36/57/97 35/56/98
f 30/50/99 31/51/100 37/58/101 36/57/102
f 31/51/103 32/52/104 38/59/105 37/58/106
f 32/52/107 27/53/108 33/60/109 38/59/110
s 1
f 28/42/111 27/41/112 39/67/113
f 29/43/114 28/42/111 39/67/113
f 30/44/115 29/43/114 39/67/113
f 31/45/116 30/44/115 39/67/113
f 32/46/117 31/45/116 39/67/113
f 27/41/112 32/46/117 39/67/113
s 2
f 46/75/118 47/76/119 48/68/120
f 47/76/119 49/77/121 48/68/120
f 49/77/121 50/78/122 48/68/120
f 50/78/122 51/79/123 48/68/120
f 51/79/123 52/80/124 48/68/120
f 52/80/124 46/75/118 48/68/120
s off
f 33/65/125 34/64/126 41/70/127 40/69/128
f 34/64/129 35/63/130 42/71/131 41/70/132
f 35/63/133 36/62/134 43/72/135 42/71/136
f 36/62/137 37/61/138 44/73/139 43/72/140
f 37/61/141 38/66/142 45/74/143 44/73/144
f 38/66/145 33/65/146 40/69/147 45/74/148
f 40/69/149 41/70/150 47/76/151 46/75/152
f 41/70/153 42/71/154 49/77/155 47/76/156
f 42/71/157 43/72/158 50/78/159 49/77/160
f 43/72/161 44/73/162 51/79/163 50/78/164
f 44/73/165 45/74/166 52/80/167 51/79/168
f 45/74/169 40/69/170 46/75/171 52/80/172
g default
v -32.197532 9.025497 -10.949767
v -32.197532 9.116653 -10.858612
v -32.288687 9.116653 -10.949767
v -28.778172 9.116653 -10.949767
v -28.869328 9.116653 -10.858612
v -28.869328 9.025497 -10.949767
v -32.288687 10.301008 -10.949767
v -32.197532 10.301008 -10.858612
v -32.197532 10.392164 -10.949767
v -28.869328 10.392164 -10.949767
v -28.869328 10.301008 -10.858612
v -28.778172 10.301008 -10.949767
v -32.288687 10.301008 -11.132115
v -32.197532 10.392164 -11.132115
v -32.197532 10.301008 -11.223270
v -28.869328 10.301008 -11.223270
v -28.869328 10.392164 -11.132115
v -28.778172 10.301008 -11.132115
v -32.288687 9.116653 -11.132115
v -32.197532 9.116653 -11.223270
v -32.197532 9.025497 -11.132115
v -28.869328 9.025497 -11.132115
v -28.869328 9.116653 -11.223270
v -28.778172 9.116653 -11.132115
vt 0.498975 0.108865
vt 0.515618 0.108865
vt 0.515618 0.133032
vt 0.493955 0.538670
vt 0.495350 0.522434
vt 0.042622 0.108865
vt 0.057349 0.108865
vt 0.042622 0.133032
vt 0.039801 0.522434
vt 0.514506 0.349078
vt 0.512075 0.326058
vt 0.495350 0.366342
vt 0.057349 0.366342
vt 0.039801 0.340392
vt 0.514026 0.310031
vt 0.514026 0.148468
vt 0.495350 0.326058
vt 0.057349 0.326058
vt 0.039801 0.300440
vt 0.039801 0.148468
vt 0.495350 0.148468
vt 0.057349 0.148468
vt 0.056070 0.133032
vt 0.057349 0.522434
vt 0.495350 0.347981
vt 0.057349 0.347981
vt 0.495350 0.306843
vt 0.057349 0.306843
vt 0.498092 0.133032
vt 0.010877 0.522910
vt 0.010877 0.363822
vt 0.535325 0.522910
vt 0.509857 0.522434
vt 0.512431 0.366342
vt 0.535325 0.363822
vt 0.056070 0.538670
vt 0.039801 0.366342
vt 0.039801 0.326058
vn -0.707109 -0.707105 0.000000
vn -0.707109 -0.707105 0.000000
vn -0.707109 -0.707105 0.000000
vn -0.707109 -0.707105 0.000000
vn 0.000000 -0.707105 0.707109
vn 0.000000 -0.707105 0.707109
vn 0.000000 -0.707105 0.707109
vn 0.000000 -0.707105 0.707109
vn -0.707107 0.000000 0.707107
vn -0.707107 0.000000 0.707107
vn -0.707107 0.000000 0.707107
vn -0.707107 0.000000 0.707107
vn 0.707107 -0.707106 0.000000
vn 0.707107 -0.707106 0.000000
vn 0.707107 -0.707106 0.000000
vn 0.707107 -0.707106 0.000000
vn 0.707105 0.000000 0.707109
vn 0.707105 0.000000 0.707109
vn 0.707105 0.000000 0.707109
vn 0.707105 0.000000 0.707109
vn -0.707109 0.707105 0.000000
vn -0.707109 0.707105 0.000000
vn -0.707109 0.707105 0.000000
vn -0.707109 0.707105 0.000000
vn 0.000000 0.707105 0.707109
vn 0.000000 0.707105 0.707109
vn 0.000000 0.707105 0.707109
vn 0.000000 0.707105 0.707109
vn 0.707107 0.707106 0.000000
vn 0.707107 0.707106 0.000000
vn 0.707107 0.707106 0.000000
vn 0.707107 0.707106 0.000000
vn -0.707107 0.000000 -0.707107
vn -0.707107 0.000000 -0.707107
vn -0.707107 0.000000 -0.707107
vn -0.707107 0.000000 -0.707107
vn 0.000000 0.707105 -0.707109
vn 0.000000 0.707105 -0.707109
vn 0.000000 0.707105 -0.707109
vn 0.000000 0.707105 -0.707109
vn 0.707105 0.000000 -0.707109
vn 0.707105 0.000000 -0.707109
vn 0.707105 0.000000 -0.707109
vn 0.707105 0.000000 -0.707109
vn 0.000000 -0.707105 -0.707109
vn 0.000000 -0.707105 -0.707109
vn 0.000000 -0.707105 -0.707109
vn 0.000000 -0.707105 -0.707109
vn 0.000000 0.000000 1.000000
vn 0.000000 0.000000 1.000000
vn 0.000000 0.000000 1.000000
vn 0.000000 0.000000 1.000000
vn 0.000000 1.000000 0.000000
vn 0.000000 1.000000 0.000000
vn 0.000000 1.000000 0.000000
vn 0.000000 1.000000 0.000000
vn 0.000000 0.000000 -1.000000
vn 0.000000 0.000000 -1.000000
vn 0.000000 0.000000 -1.000000
vn 0.000000 0.000000 -1.000000
vn 0.000000 -1.000000 0.000000
vn 0.000000 -1.000000 0.000000
vn 0.000000 -1.000000 0.000000
vn 0.000000 -1.000000 0.000000
vn 1.000000 0.000000 0.000000
vn 1.000000 0.000000 0.000000
vn 1.000000 0.000000 0.000000
vn 1.000000 0.000000 0.000000
vn -1.000000 0.000000 0.000000
vn -1.000000 0.000000 0.000000
vn -1.000000 0.000000 0.000000
vn -1.000000 0.000000 0.000000
vn -0.577352 -0.577347 0.577352
vn -0.577352 -0.577347 0.577352
vn -0.577352 -0.577347 0.577352
vn 0.577350 -0.577349 0.577352
vn 0.577350 -0.577349 0.577352
vn 0.577350 -0.577349 0.577352
vn -0.577352 0.577347 0.577352
vn -0.577352 0.577347 0.577352
vn -0.577352 0.577347 0.577352
vn 0.577350 0.577349 0.577352
vn 0.577350 0.577349 0.577352
vn 0.577350 0.577349 0.577352
vn -0.577352 0.577347 -0.577352
vn -0.577352 0.577347 -0.577352
vn -0.577352 0.577347 -0.577352
vn 0.577350 0.577349 -0.577352
vn 0.577350 0.577349 -0.577352
vn 0.577350 0.577349 -0.577352
vn -0.577352 -0.577347 -0.577352
vn -0.577352 -0.577347 -0.577352
vn -0.577352 -0.577347 -0.577352
vn 0.577350 -0.577349 -0.577352
vn 0.577350 -0.577349 -0.577352
vn 0.577350 -0.577349 -0.577352
s off
g cold_air_diffuser group1 pCube3
usemtl initialShadingGroup
f 53/81/173 55/82/174 71/83/175 73/109/176
f 54/85/177 53/84/178 58/116/179 57/104/180
f 55/113/181 54/85/182 60/92/183 59/114/184
f 56/86/185 58/87/186 74/103/187 76/88/188
f 57/104/189 56/89/190 64/117/191 63/93/192
f 59/90/193 61/105/194 66/97/195 65/91/196
f 61/105/197 60/92/198 63/93/199 62/106/200
f 62/106/201 64/94/202 70/118/203 69/98/204
f 65/95/205 67/107/206 72/101/207 71/96/208
f 67/107/209 66/97/210 69/98/211 68/108/212
f 68/108/213 70/99/214 76/100/215 75/102/216
f 73/109/217 72/101/218 75/102/219 74/103/220
f 54/85/221 57/104/222 63/93/223 60/92/224
f 61/105/225 62/106/226 69/98/227 66/97/228
f 67/107/229 68/108/230 75/102/231 72/101/232
f 73/109/233 74/103/234 58/87/235 53/81/236
f 56/89/237 76/110/238 70/111/239 64/117/240
f 71/112/241 55/113/242 59/114/243 65/115/244
f 53/84/245 54/85/246 55/113/247
f 56/89/248 57/104/249 58/116/250
f 59/114/251 60/92/252 61/105/253
f 62/106/254 63/93/255 64/117/256
f 65/91/257 66/97/258 67/107/259
f 68/108/260 69/98/261 70/118/262
f 71/96/263 72/101/264 73/109/265
f 74/103/266 75/102/267 76/100/268
g default
v -29.661966 11.394268 -11.502268
v -31.451781 11.394268 -11.502268
v -29.661966 11.394268 7.246561
v -31.451781 11.394268 7.246561
v -30.894950 11.394268 -11.502268
v -30.894950 11.394268 7.246561
v -30.218797 11.394268 -11.502268
v -30.218797 11.394268 7.246561
v -29.661966 11.565283 -11.502268
v -30.218797 11.565283 -11.502268
v -30.218797 11.565283 7.246561
v -29.661966 11.565283 7.246561
v -30.894950 11.565283 -11.502268
v -30.894950 11.565283 7.246561
v -31.451781 11.565283 -11.502268
v -31.451781 11.565283 7.246561
v -29.661966 11.762565 -11.502268
v -30.218797 11.762565 -11.502268
v -30.218797 11.762565 7.246561
v -29.661966 11.762565 7.246561
v -30.894950 11.762565 -11.502268
v -30.894950 11.762565 7.246561
v -31.451781 11.762565 -11.502268
v -31.451781 11.762565 7.246561
v -30.894950 10.934947 -11.502268
v -30.894950 10.934947 7.246561
v -30.218797 10.934947 -11.502268
v -30.218797 10.934947 7.246561
vt 0.782758 0.786245
vt 0.783159 0.741965
vt 0.923362 0.279351
vt 0.923763 0.235071
vt 0.783034 0.755741
vt 0.923638 0.248847
vt 0.782883 0.772469
vt 0.923487 0.265575
vt 0.932935 0.743322
vt 0.976745 0.263105
vt 0.976593 0.279833
vt 0.972391 0.743680
vt 0.986167 0.743805
vt 0.990369 0.279958
vt 0.795296 0.786359
vt 0.859523 0.742657
vt 0.910948 0.265461
vt 0.910824 0.279237
vt 0.795572 0.755855
vt 0.795697 0.742079
vt 0.911225 0.234957
vt 0.846998 0.278659
vt 0.889960 0.742933
vt 0.876184 0.742808
vt 0.894287 0.265310
vt 0.894163 0.279086
vt 0.830337 0.278508
vt 0.812233 0.756006
vt 0.812358 0.742230
vt 0.894564 0.234806
vt 0.965229 0.279730
vt 0.961027 0.743577
vt 0.944299 0.743425
vt 0.965381 0.263002
vt 0.842795 0.742505
vt 0.811957 0.786510
vt 0.812082 0.772734
vt 0.795421 0.772583
vt 0.906621 0.743084
vt 0.919159 0.743197
vt 0.826134 0.742355
vt 0.960875 0.760305
vt 0.972239 0.760408
vt 0.816561 0.278383
vt 0.799900 0.278232
vt 0.787361 0.278119
vt 0.911100 0.248733
vt 0.894439 0.248582
vt 0.880387 0.278961
vt 0.863726 0.278811
vt 0.948502 0.279579
vt 0.937138 0.279476
vn 0.000000 1.000000 0.000000
vn 0.000000 1.000000 0.000000
vn 0.000000 1.000000 0.000000
vn 0.000000 1.000000 0.000000
vn 0.000000 1.000000 0.000000
vn 0.000000 1.000000 0.000000
vn 0.000000 1.000000 0.000000
vn 0.000000 1.000000 0.000000
vn 0.000001 1.000000 0.000000
vn 0.000001 1.000000 0.000000
vn 0.000001 1.000000 0.000000
vn 0.000001 1.000000 0.000000
vn 0.000000 -1.000000 0.000000
vn 0.000000 -1.000000 0.000000
vn 0.000000 -1.000000 0.000000
vn 0.000000 -1.000000 0.000000
vn 0.000000 -1.000000 0.000000
vn 0.000000 -1.000000 0.000000
vn 0.000000 -1.000000 0.000000
vn 0.000000 -1.000000 0.000000
vn -0.000001 -1.000000 0.000000
vn -0.000001 -1.000000 0.000000
vn -0.000001 -1.000000 0.000000
vn -0.000001 -1.000000 0.000000
vn 0.000000 -0.000000 -1.000000
vn 0.000000 -0.000000 -1.000000
vn 0.000000 -0.000000 -1.000000
vn 0.000000 -0.000000 -1.000000
vn 0.000000 0.000000 1.000000
vn 0.000000 0.000000 1.000000
vn 0.000000 0.000000 1.000000
vn 0.000000 0.000000 1.000000
vn 1.000000 0.000000 0.000000
vn 1.000000 0.000000 0.000000
vn 1.000000 0.000000 0.000000
vn 1.000000 0.000000 0.000000
vn 0.000000 -0.000000 -1.000000
vn 0.000000 -0.000000 -1.000000
vn 0.000000 -0.000000 -1.000000
vn 0.000000 -0.000000 -1.000000
vn -1.000000 0.000000 0.000000
vn -1.000000 0.000000 0.000000
vn -1.000000 0.000000 0.000000
vn -1.000000 0.000000 0.000000
vn 0.000000 0.000000 1.000000
vn 0.000000 0.000000 1.000000
vn 0.000000 0.000000 1.000000
vn 0.000000 0.000000 1.000000
vn 0.000000 -0.000000 -1.000000
vn 0.000000 -0.000000 -1.000000
vn -1.000000 0.000000 0.000000
vn -1.000000 0.000000 0.000000
vn -1.000000 0.000000 0.000000
vn -1.000000 0.000000 0.000000
vn 0.000000 0.000000 1.000000
vn 0.000000 0.000000 1.000000
vn 1.000000 0.000000 0.000000
vn 1.000000 0.000000 0.000000
vn 1.000000 0.000000 0.000000
vn 1.000000 0.000000 0.000000
vn 1.000000 0.000000 0.000000
vn 1.000000 0.000000 0.000000
vn 0.000000 -0.000000 -1.000000
vn 0.000000 -0.000000 -1.000000
vn -1.000000 0.000000 0.000000
vn -1.000000 0.000000 0.000000
vn 0.000000 0.000000 1.000000
vn 0.000000 0.000000 1.000000
vn -1.000000 0.000000 0.000000
vn -1.000000 0.000000 0.000000
vn -1.000000 0.000000 0.000000
vn -1.000000 0.000000 0.000000
vn 0.000000 -0.000000 -1.000000
vn 0.000000 -0.000000 -1.000000
vn 1.000000 0.000000 0.000000
vn 1.000000 0.000000 0.000000
vn 1.000000 0.000000 0.000000
vn 1.000000 0.000000 0.000000
vn 0.000000 0.000000 1.000000
vn 0.000000 0.000000 1.000000
s off
g cold_air_diffuser group1 pCylinder11
usemtl initialShadingGroup
f 93/141/269 94/142/270 95/167/271 96/144/272
f 98/145/273 97/159/274 99/147/275 100/162/276
f 90/140/277 87/168/278 86/134/279 89/153/280
f 77/158/281 79/121/282 84/170/283 83/127/284
f 82/129/285 80/132/286 78/131/287 81/130/288
f 102/149/289 101/150/290 103/151/291 104/169/292
s 1
f 77/119/293 83/125/294 86/156/295 85/133/296
s 2
f 84/126/297 79/121/298 88/136/299 87/135/300
s 3
f 79/121/301 77/158/302 85/157/303 88/136/304
s 1
f 81/123/305 78/120/306 91/138/307 89/137/308
s 5
f 78/120/309 80/164/310 92/163/311 91/138/312
s 2
f 80/122/313 82/124/314 90/165/315 92/139/316
f 82/124/314 84/126/297 87/135/300 90/165/315
s 1
f 83/125/294 81/123/305 89/137/308 86/156/295
f 85/133/296 86/156/295 94/155/317 93/154/318
s off
f 86/134/319 87/168/320 95/167/321 94/142/322
s 2
f 87/135/300 88/136/299 96/144/323 95/143/324
s 3
f 88/136/304 85/157/303 93/141/325 96/144/326
s off
f 90/140/327 89/153/328 97/159/329 98/145/330
s 1
f 89/137/308 91/138/307 99/147/331 97/146/332
s 5
f 91/138/312 92/163/311 100/162/333 99/147/334
s 2
f 92/139/316 90/165/315 98/166/335 100/148/336
s off
f 82/129/337 81/130/338 101/150/339 102/149/340
s 1
f 81/130/305 83/161/294 103/160/341 101/150/342
s off
f 83/127/343 84/170/344 104/169/345 103/151/346
s 2
f 84/128/297 82/129/314 102/149/347 104/152/348
g default
v -29.661966 11.394268 -10.589540
v -31.451781 11.394268 -10.589540
v -32.346689 10.652307 -10.589540
v -28.767059 10.652307 -10.589540
v -29.661966 11.394268 6.333834
v -31.451781 11.394268 6.333834
v -32.346689 10.652307 6.333834
v -28.767059 10.652307 6.333834
v -30.556874 10.652307 -10.589540
v -30.556874 10.652307 6.333834
vt 0.714435 0.109016
vt 0.660806 0.108865
vt 0.633928 0.131021
vt 0.741187 0.131324
vt 0.545466 0.130770
vt 0.599096 0.130922
vt 0.741187 0.131324
vt 0.776020 0.131423
vt 0.544031 0.637858
vt 0.597661 0.638010
vt 0.632493 0.638109
vt 0.739753 0.638412
vt 0.774585 0.638511
vt 0.659245 0.660416
vt 0.712875 0.660568
vt 0.687558 0.131172
vt 0.686123 0.638260
vn 0.000000 1.000000 0.000000
vn 0.000000 1.000000 0.000000
vn 0.000000 1.000000 0.000000
vn 0.000000 1.000000 0.000000
vn -0.638255 0.769825 0.000000
vn -0.638255 0.769825 0.000000
vn -0.638255 0.769825 0.000000
vn -0.638255 0.769825 0.000000
vn 0.638256 0.769825 0.000000
vn 0.638256 0.769825 0.000000
vn 0.638256 0.769825 0.000000
vn 0.638256 0.769825 0.000000
vn 0.000000 0.000000 -1.000000
vn 0.000000 0.000001 -1.000000
vn 0.000000 0.000001 -1.000000
vn 0.000000 -0.000000 -1.000000
vn 0.000000 0.000001 -1.000000
vn 0.000000 0.000000 1.000000
vn 0.000000 0.000001 1.000000
vn 0.000000 0.000001 1.000000
vn 0.000000 0.000001 1.000000
vn 0.000000 0.000000 1.000000
vn -0.000000 -1.000000 0.000000
vn -0.000000 -1.000000 0.000000
vn -0.000000 -1.000000 0.000000
vn -0.000000 -1.000000 0.000000
vn 0.000000 -1.000000 0.000000
vn 0.000000 -1.000000 0.000000
s off
g cold_air_diffuser group1 pCylinder10
usemtl initialShadingGroup
f 105/175/349 106/176/350 110/180/351 109/179/352
f 106/176/353 107/173/354 111/181/355 110/180/356
f 108/177/357 105/178/358 109/183/359 112/182/360
s 1
f 106/172/361 105/171/362 113/186/363
f 107/173/364 106/172/361 113/186/363
f 105/171/362 108/174/365 113/186/363
s 2
f 109/185/366 110/184/367 114/187/368
f 110/184/367 111/181/369 114/187/368
f 112/182/370 109/185/366 114/187/368
s 3
f 111/181/371 107/173/372 113/186/373 114/187/374
f 114/187/374 113/186/373 108/177/375 112/182/376
